# xmcd
# Copyright (C) 1995-1998 Ti Kan
#
# Track frame offsets:
#       150
#       17106
#       34221
#       49443
#       61958
#       74254
#       87626
#       102132
#       122864
#       135392
#       150137
#       167165
#
# Disc length: 2433 seconds
#
# Revision: 0
# Processed by: cddbd v1.5.2PL0 Copyright (c) Steve Scherf et al.
# Submitted via: CD-Transfer v1.0
#
DISCID=9f097f0c
DTITLE=Martin Locher - 
DYEAR=1900
DGENRE=
TTITLE0=Du Tuast Ma Weh
TTITLE1=Wer Wart Auf Di Daham
TTITLE2=Lotto Millionär
TTITLE3=Summersunn
TTITLE4=Du Bist Für Mi Is Lebm
TTITLE5=A So An Tag Im Lebm
TTITLE6=Lass Di Falln
TTITLE7=Sei So Frei
TTITLE8=Nur Ned Liagn
TTITLE9=I Frag Mi
TTITLE10=Hey, Was Machst Denn Du Da
TTITLE11=Du Horchst Ma Zua
EXTD=
EXTT0=
EXTT1=
EXTT2=
EXTT3=
EXTT4=
EXTT5=
EXTT6=
EXTT7=
EXTT8=
EXTT9=
EXTT10=
EXTT11=
PLAYORDER=
